<?xml version="1.0" encoding="utf-8"?>
<!-- Generator: Adobe Illustrator 28.3.0, SVG Export Plug-In . SVG Version: 6.00 Build 0)  -->
<svg version="1.1" xmlns="http://www.w3.org/2000/svg" xmlns:xlink="http://www.w3.org/1999/xlink" x="0px" y="0px"
	 viewBox="0 0 1000 2000" style="enable-background:new 0 0 1000 2000;" xml:space="preserve">
<g id="B">
	<g>
		<path d="M179.03,1384.24v-442.8h145.2c27.2,0,51.8,1.71,73.8,5.1c21.99,3.4,40.7,9.4,56.1,18c15.39,8.61,27.2,20.5,35.4,35.7
			c8.2,15.21,12.3,34.41,12.3,57.6c0,14.4-2.4,27.4-7.2,39c-4.8,11.61-11.5,21.51-20.1,29.7c-8.61,8.2-18.9,14.8-30.9,19.8
			c-12,5.01-25.2,8.31-39.6,9.9c14.79,1.6,28.7,4.9,41.7,9.9c12.99,5.01,24.5,11.7,34.5,20.1c9.99,8.4,17.79,18.9,23.4,31.5
			c5.6,12.6,8.4,27.51,8.4,44.7c0,24-4.5,43.8-13.5,59.4c-9,15.6-21.9,28-38.7,37.2c-16.8,9.21-36.7,15.7-59.7,19.5
			c-23.01,3.81-48.7,5.7-77.1,5.7H179.03z M244.43,1146.64h84.6c21.2,0,38.7-1.89,52.5-5.7c13.8-3.8,24.6-9.39,32.4-16.8
			c7.8-7.4,13.2-16.59,16.2-27.6c3-11,4.5-23.7,4.5-38.1c0-20-2.2-36.09-6.6-48.3c-4.41-12.2-11.2-21.5-20.4-27.9
			c-9.21-6.39-20.7-10.8-34.5-13.2c-13.8-2.4-30.1-3.6-48.9-3.6h-79.8V1146.64z M244.43,1360.24h79.8c19.2,0,36.2-1.29,51-3.9
			c14.79-2.6,27.2-7.4,37.2-14.4c9.99-6.99,17.6-17,22.8-30c5.19-12.99,7.8-29.9,7.8-50.7c0-15.2-1.71-28.5-5.1-39.9
			c-3.4-11.4-9.21-21.09-17.4-29.1c-8.2-8-19.6-14-34.2-18c-14.61-3.99-33.3-6-56.1-6h-85.8V1360.24z"/>
	</g>
</g>
<g id="shape">
	<polygon points="787.42,112.11 521.98,112.11 389.27,341.98 521.98,571.86 787.42,571.86 920.14,341.98 	"/>
</g>
</svg>
